<svg width="1024" height="1024" viewBox="0 0 1024 1024" fill="none" xmlns="http://www.w3.org/2000/svg">
    <rect x="64" y="64" width="896" height="896" rx="180" fill="white"/>

    <g transform="translate(512 512)">

        <path d="M0 -220 V220" stroke="#007AFF" stroke-width="56" stroke-linecap="round" stroke-linejoin="round"/>
        <path d="M-150 70 L0 220 L150 70" stroke="#007AFF" stroke-width="56" stroke-linecap="round" stroke-linejoin="round"/>

        <path d="M-180 -200 C-180 -50, -180 50, -280 150" stroke="#007AFF" stroke-width="42" stroke-linecap="round"/>
        <path d="M-280 150 C-340 210, -400 150, -360 100" stroke="#007AFF" stroke-width="42" stroke-linecap="round"/>

        <path d="M180 -200 C180 -50, 180 50, 280 150" stroke="#007AFF" stroke-width="42" stroke-linecap="round"/>
        <path d="M280 150 C340 210, 400 150, 360 100" stroke="#007AFF" stroke-width="42" stroke-linecap="round"/>

        <path d="M-260 -240 C-240 -180, -220 -180, -220 -140" stroke="#007AFF" stroke-width="36" stroke-linecap="round"/>
        <path d="M260 -240 C240 -180, 220 -180, 220 -140" stroke="#007AFF" stroke-width="36" stroke-linecap="round"/>

    </g>

    <defs>
        <linearGradient id="paint0_linear_doodle" x1="512" y1="64" x2="512" y2="960" gradientUnits="userSpaceOnUse">
            <stop stop-color="white" stop-opacity="0.5"/>
            <stop offset="1" stop-color="#E5E5E5" stop-opacity="0.2"/>
        </linearGradient>
    </defs>
    <rect x="64" y="64" width="896" height="896" rx="180" fill="url(#paint0_linear_doodle)" style="mix-blend-mode:overlay"/>
</svg>
