<svg width="1024" height="1024" viewBox="0 0 1024 1024" fill="none" xmlns="http://www.w3.org/2000/svg">
    <rect x="64" y="64" width="896" height="896" rx="180" fill="white"/>

    <g transform="translate(512 512)">

        <path d="M0 -180 V180" stroke="#007AFF" stroke-width="56" stroke-linecap="round" stroke-linejoin="round"/>
        <path d="M-150 30 L0 180 L150 30" stroke="#007AFF" stroke-width="56" stroke-linecap="round" stroke-linejoin="round"/>

        <path d="M-280 -180 C-280 -80, -220 -80, -200 0" stroke="#007AFF" stroke-width="40" stroke-linecap="round"/>
        <path d="M-320 -60 C-320 60, -240 100, -200 200" stroke="#007AFF" stroke-width="40" stroke-linecap="round"/>

        <path d="M280 -180 C280 -80, 220 -80, 200 0" stroke="#007AFF" stroke-width="40" stroke-linecap="round"/>
        <path d="M320 -60 C320 60, 240 100, 200 200" stroke="#007AFF" stroke-width="40" stroke-linecap="round"/>

        <path d="M-180 -220 L-180 -180" stroke="#007AFF" stroke-width="40" stroke-linecap="round"/>
        <path d="M180 -220 L180 -180" stroke="#007AFF" stroke-width="40" stroke-linecap="round"/>

    </g>

    <defs>
        <linearGradient id="paint0_linear_v3" x1="512" y1="64" x2="512" y2="960" gradientUnits="userSpaceOnUse">
            <stop stop-color="white" stop-opacity="0.5"/>
            <stop offset="1" stop-color="#E5E5E5" stop-opacity="0.2"/>
        </linearGradient>
    </defs>
    <rect x="64" y="64" width="896" height="896" rx="180" fill="url(#paint0_linear_v3)" style="mix-blend-mode:overlay"/>
</svg>
